@startuml
class ClipCurveEditor {
    {static} <<readonly>> s_GridLabelWidth : float = 40.0f
    m_LastFrameRate : float = 30.0f
    m_LastClipVersion : int
    m_LastCurveCount : int
    m_ShouldRestoreShownArea : bool
    isNewSelection : bool <<get>>
    + ClipCurveEditor(dataSource:CurveDataSource, parentWindow:TimelineWindow, hostTrack:TrackAsset)
    + SelectAllKeys() : void
    + FrameClip() : void
    + DrawHeader(headerRect:Rect) : void
    UpdateCurveEditorIfNeeded(state:WindowState) : void
    + DrawCurveEditor(rect:Rect, state:WindowState, clipRange:Vector2, loop:bool, selected:bool) : void
    {static} CalculateCurveVisibleTimeRange(timeAreaShownRange:Vector2, curve:CurveDataSource) : Vector2
    SetupMarginsAndRect(rect:Rect, state:WindowState) : void
    RestoreShownArea() : void
    {static} DrawCurveEditorBackground(rect:Rect) : void
    {static} CalculateTopMargin(height:float) : float
    {static} DrawOutline(rect:Rect, thickness:float) : void
    {static} DrawOverlay(rect:Rect, clipRange:Vector2, color:Color) : void
    DrawGrid(rect:Rect, curveXPosition:float) : void
}
class FrameFormatCurveEditorState {
    + rippleTime : bool <<get>>
}
class UnformattedCurveEditorState {
    + rippleTime : bool <<get>>
}
ClipCurveEditor o-> "s_CurveEditorSettings" CurveEditorSettings
ClipCurveEditor --> "m_BindingHierarchy" BindingSelector
ClipCurveEditor --> "bindingHierarchy" BindingSelector
ClipCurveEditor --> "shownAreaInsideMargins" Rect
ClipCurveEditor o-> "m_ScrollPosition" Vector2
ClipCurveEditor --> "m_DataSource" CurveDataSource
ClipCurveEditor --> "m_ViewModel" TrackViewModelData
ClipCurveEditor --> "dataSource" CurveDataSource
ClipCurveEditor +-- FrameFormatCurveEditorState
ICurveEditorState <|-- FrameFormatCurveEditorState
FrameFormatCurveEditorState --> "timeRange" Vector2
ClipCurveEditor +-- UnformattedCurveEditorState
ICurveEditorState <|-- UnformattedCurveEditorState
UnformattedCurveEditorState --> "timeRange" Vector2
@enduml
