@startuml
abstract class CurveDataSource {
    + {static} Create(trackGUI:IRowGUI) : CurveDataSource
    + {static} Create(clipGUI:TimelineClipGUI) : CurveDataSource
    m_ID : int? = null
    + id : int <<get>>
    + {abstract} start : float <<get>>
    + {abstract} timeScale : float <<get>>
    + {abstract} groupingName : string <<get>>
    + <<virtual>> UpdateCurves(updatedCurves:List<CurveWrapper>) : void
    + <<virtual>> RebuildCurves() : void
    + GetBackgroundRect(state:WindowState) : Rect
    + GenerateWrappers(bindings:List<EditorCurveBinding>) : List<CurveWrapper>
}
class ClipAnimationCurveDataSource {
    {static} <<readonly>> k_GroupingName : string
    + ClipAnimationCurveDataSource(clipGUI:TimelineClipGUI)
    + <<override>> start : float <<get>>
    + <<override>> timeScale : float <<get>>
    + <<override>> groupingName : string <<get>>
}
class ClipParametersCurveDataSource {
    {static} <<readonly>> k_GroupingName : string
    + ClipParametersCurveDataSource(clipGUI:TimelineClipGUI)
    + <<override>> start : float <<get>>
    + <<override>> timeScale : float <<get>>
    + <<override>> groupingName : string <<get>>
    + <<override>> UpdateCurves(updatedCurves:List<CurveWrapper>) : void
    + <<override>> RebuildCurves() : void
}
class InfiniteClipCurveDataSource {
    {static} <<readonly>> k_GroupingName : string
    + InfiniteClipCurveDataSource(trackGui:IRowGUI)
    + <<override>> start : float <<get>>
    + <<override>> timeScale : float <<get>>
    + <<override>> groupingName : string <<get>>
}
class TrackParametersCurveDataSource {
    {static} <<readonly>> k_GroupingName : string
    + TrackParametersCurveDataSource(trackGui:IRowGUI)
    + <<override>> start : float <<get>>
    + <<override>> timeScale : float <<get>>
    + <<override>> groupingName : string <<get>>
    + <<override>> UpdateCurves(updatedCurves:List<CurveWrapper>) : void
    + <<override>> RebuildCurves() : void
}
CurveDataSource --> "m_TrackGUI" IRowGUI
CurveDataSource --> "animationClip" AnimationClip
CurveDataSource <|-- ClipAnimationCurveDataSource
ClipAnimationCurveDataSource --> "m_ClipGUI" TimelineClipGUI
ClipAnimationCurveDataSource --> "animationClip" AnimationClip
CurveDataSource <|-- ClipParametersCurveDataSource
ClipParametersCurveDataSource --> "m_ClipGUI" TimelineClipGUI
ClipParametersCurveDataSource --> "m_CurvesProxy" CurvesProxy
ClipParametersCurveDataSource --> "animationClip" AnimationClip
CurveDataSource <|-- InfiniteClipCurveDataSource
InfiniteClipCurveDataSource --> "m_AnimationTrack" AnimationTrack
InfiniteClipCurveDataSource --> "animationClip" AnimationClip
CurveDataSource <|-- TrackParametersCurveDataSource
TrackParametersCurveDataSource --> "m_CurvesProxy" CurvesProxy
TrackParametersCurveDataSource --> "animationClip" AnimationClip
@enduml
