@startuml
class TimelineDragging {
    <<const>> k_GenericDragId : string = "TimelineDragging"
    <<readonly>> kDragSensitivity : int = 2
    + TimelineDragging(treeView:TreeViewController, window:TimelineWindow, data:TimelineAsset)
    + <<override>> CanStartDrag(targetItem:TreeViewItem, draggedItemIDs:List<int>, mouseDownPosition:Vector2) : bool
    + <<override>> StartDrag(draggedNode:TreeViewItem, draggedItemIDs:List<int>) : void
    + {static} IsDraggingEvent() : bool
    + {static} ResolveType(types:IEnumerable<System.Type>, onComplete:Action<Type>, formatString:string) : bool
    + <<override>> DragElement(targetItem:TreeViewItem, targetItemRect:Rect, row:int) : bool
    GetNextItem(item:TreeViewItem) : TreeViewItem
    + <<override>> DoDrag(parentItem:TreeViewItem, targetItem:TreeViewItem, perform:bool, dropPos:DropPosition) : DragAndDropVisualMode
    ClearInsertionMarkers(item:TreeViewItem) : void
    ShouldUseHierarchyDragAndDrop() : bool
    + {static} HandleHierarchyPaneDragAndDrop(objectsBeingDropped:IEnumerable<UnityObject>, targetTrack:TrackAsset, perform:bool, timeline:TimelineAsset, director:PlayableDirector, typeResolver:TypeResolver, insertBefore:TrackAsset) : DragAndDropVisualMode
    + {static} HandleClipPaneObjectDragAndDrop(objectsBeingDropped:IEnumerable<UnityObject>, targetTrack:TrackAsset, perform:bool, timeline:TimelineAsset, parent:TrackAsset, director:PlayableDirector, candidateTime:double, typeResolver:TypeResolver, insertBefore:TrackAsset) : DragAndDropVisualMode
    {static} HandleTrackAndItemCreation(objectsBeingDropped:IEnumerable<UnityEngine.Object>, candidateTime:double, typeResolver:TypeResolver, timeline:TimelineAsset, parent:TrackAsset, validTrackTypes:IEnumerable<Type>, insertBefore:TrackAsset) : bool
    {static} HandleItemCreation(objectsBeingDropped:IEnumerable<UnityEngine.Object>, targetTrack:TrackAsset, candidateTime:double, typeResolver:TypeResolver, allowMenu:bool) : void
    + {static} HandleClipPaneMonoScriptDragAndDrop(scriptsBeingDropped:IEnumerable<MonoScript>, targetTrack:TrackAsset, perform:bool, timeline:TimelineAsset, parent:TrackAsset, director:PlayableDirector, candidateTime:double) : DragAndDropVisualMode
    + {static} HandleClipPanePlayableAssetDragAndDrop(assetsBeingDropped:IEnumerable<IPlayableAsset>, targetTrack:TrackAsset, perform:bool, timeline:TimelineAsset, parent:TrackAsset, director:PlayableDirector, candidateTime:double, typeResolver:TypeResolver) : DragAndDropVisualMode
    {static} ValidateObjectDrop(obj:UnityObject) : bool
    + HandleTrackDrop(parentItem:TreeViewItem, targetItem:TreeViewItem, perform:bool, dropPos:DropPosition) : DragAndDropVisualMode
    + {static} HandleBindingDragAndDrop(dropTarget:TrackAsset, requiredBindingType:Type) : void
    {static} ValidDrag(target:TreeViewItem, draggedItems:List<TreeViewItem>) : bool
}
class "IEnumerable`1"<T> {
}
class "Action`1"<T> {
}
class TimelineDragData {
    + TimelineDragData(draggedItems:List<TreeViewItem>)
}
class "List`1"<T> {
}
TreeViewDragging <|-- TimelineDragging
TimelineDragging --> "m_Timeline" TimelineAsset
TimelineDragging --> "m_Window" TimelineWindow
TimelineDragging +-- TimelineDragData
TimelineDragData --> "draggedItems<TreeViewItem>" "List`1"
@enduml
