@startuml
class TimelineTrackErrorGUI {
    + TimelineTrackErrorGUI(treeview:TreeViewController, treeviewGUI:TimelineTreeViewGUI, id:int, depth:int, parent:TreeViewItem, displayName:string, track:ScriptableObject, owner:PlayableAsset)
    + <<override>> expandable : bool <<get>>
    + <<override>> Draw(headerRect:Rect, contentRect:Rect, state:WindowState) : void
    DrawMissingTrackHeader(headerRect:Rect, state:WindowState) : void
    DrawRemoveMenu(headerRect:Rect, state:WindowState) : void
    {static} DrawMissingTrackBody(contentRect:Rect) : void
    {static} DrawScriptWarningBox(trackRect:Rect, content:GUIContent) : void
    + <<override>> OnGraphRebuilt() : void
}
class Styles <<static>> {
}
TimelineTrackBaseGUI <|-- TimelineTrackErrorGUI
TimelineTrackErrorGUI --> "m_TrackRect" Rect
TimelineTrackErrorGUI --> "m_ScriptableObject" ScriptableObject
TimelineTrackErrorGUI --> "m_Owner" PlayableAsset
TimelineTrackErrorGUI o-> "s_GUIContent" GUIContent
TimelineTrackErrorGUI --> "boundingRect" Rect
TimelineTrackErrorGUI +-- Styles
Styles o-> "ErrorText" GUIContent
Styles o-> "IconWarn" Texture2D
Styles o-> "RemoveTrack" GUIContent
Styles o-> "WarningBoxBackgroundColor" Color
Styles o-> "WarningBoxHighlightColor" Color
@enduml
